<?xml version="1.0" standalone="no"?>
<!DOCTYPE svg PUBLIC "-//W3C//DTD SVG 20010904//EN"
 "http://www.w3.org/TR/2001/REC-SVG-20010904/DTD/svg10.dtd">
<svg version="1.0" xmlns="http://www.w3.org/2000/svg"
 width="500.000000pt" height="500.000000pt" viewBox="0 0 500.000000 500.000000"
 preserveAspectRatio="xMidYMid meet">
<metadata>
Created by potrace 1.11, written by Peter Selinger 2001-2013
</metadata>
<g transform="translate(0.000000,500.000000) scale(0.100000,-0.100000)"
fill="#000000" stroke="none">
<path d="M2298 4899 c-119 -10 -290 -40 -422 -74 -393 -102 -821 -353 -1102
-647 -284 -298 -502 -680 -599 -1054 -109 -418 -109 -830 0 -1248 97 -374 315
-756 599 -1054 281 -294 709 -545 1102 -647 261 -68 533 -95 777 -77 526 39
994 227 1395 559 366 304 659 763 777 1219 109 418 109 830 0 1248 -102 393
-353 821 -647 1102 -298 285 -680 502 -1054 599 -278 72 -552 97 -826 74z
m349 -1351 c78 -189 145 -351 149 -361 4 -12 -23 -65 -87 -172 l-94 -154 -54
139 c-30 77 -57 140 -61 140 -7 0 -260 -640 -260 -659 0 -7 23 -11 66 -11 36
0 64 -4 62 -9 -1 -5 -39 -68 -83 -140 l-80 -131 -40 0 -40 0 -35 -86 c-19 -47
-36 -87 -40 -88 -11 -7 -265 143 -264 156 1 19 708 1718 714 1718 3 0 69 -154
147 -342z m511 -1228 c149 -360 274 -663 278 -672 6 -17 -6 -18 -163 -18
l-169 0 -114 280 -115 280 -242 2 -242 3 83 135 83 135 101 3 c71 2 102 6 102
15 0 6 -16 53 -36 103 l-37 92 94 155 c52 86 97 152 100 149 3 -4 128 -302
277 -662z m-1227 -406 l66 -37 -51 -123 -50 -124 -169 0 c-157 0 -169 1 -162
18 3 9 40 99 82 199 l75 183 72 -40 c39 -22 101 -57 137 -76z"/>
</g>
</svg>
